<svg width="18" height="17" fill="none" xmlns="http://www.w3.org/2000/svg"><path d="M1.759 2.276A4.427 4.427 0 0 1 4.926.95c1.196 0 2.322.471 3.167 1.326m-6.334 0L1.78 8.63a4.519 4.519 0 0 1 .013-6.319A4.377 4.377 0 0 1 4.926 1c1.183 0 2.295.466 3.132 1.311m-6.3-.035a4.569 4.569 0 0 0-.016 6.385m.017-6.385L1.742 8.66m6.351-6.385.004.004m-.004-.004a.054.054 0 0 0-.006-.003m.006.003a.054.054 0 0 1 .004.004m0 0a.058.058 0 0 1 .004.005l.002.005v-.002a.043.043 0 0 0-.01-.011l-.035.034m.039-.031a.057.057 0 0 1 .004.003v.001L9 3.247m-.942-.936.034-.034a.043.043 0 0 0-.005-.004m-.03.038c.002 0 .002.002.002.002l.002.002.002.002s.002 0 .002.002l.9.964L9 3.247m-.913-.974zM9 3.247l.898-.963H9.9a.054.054 0 0 1 .004-.004M9 3.247l.034.036.9-.964.003-.002L16.26 8.66m-14.517.001a.057.057 0 0 0 .004.005l-.004-.005zm14.512.004zm0 0a.169.169 0 0 0 .005-.005m-.005.005a.047.047 0 0 0 .01-.017v.001a.063.063 0 0 1-.005.011m0 0c1.726-1.767 1.72-4.625-.017-6.384A4.428 4.428 0 0 0 13.074.95a4.427 4.427 0 0 0-3.167 1.326m6.352 6.384a.045.045 0 0 1-.004.005l.004-.005zM9.907 2.276a.057.057 0 0 0-.004.004m.005-.004a.056.056 0 0 1 .005-.003m-.005.003.005-.003m-.005.004a.06.06 0 0 0-.005.003m.005-.003-.011.012a.058.058 0 0 1 .006-.01m.01-.006zm-.62 1.848a.064.064 0 0 1-.008.007.07.07 0 0 1-.007.009h-.001c-.022.022-.05.036-.07.047l-.012.007-.025-.044m.123-.026-.04-.032a.02.02 0 0 0-.004.003l-.003.005-.004.004a.245.245 0 0 1-.055.037.883.883 0 0 0-.017.01m.123-.027h.001l1.191-1.276a3.626 3.626 0 0 1 2.59-1.08c.98 0 1.9.385 2.594 1.085a3.752 3.752 0 0 1 0 5.254l.035.036-.035-.036a.059.059 0 0 0-.011.015h-.002l-6.23 6.915a.57.57 0 0 1-.426.201.57.57 0 0 1-.428-.202L2.345 8.118m6.948-3.998L2.33 8.106M9.17 4.147l.025.043-.008.006-.006.004a.138.138 0 0 1-.03.017m.02-.07-.015.01a.106.106 0 0 1-.023.014m.018.046-.018-.046m.018.046-.018-.046m.018.046a.402.402 0 0 1-.304 0m.286-.046A.352.352 0 0 1 9 4.198a.352.352 0 0 1-.134-.027m-.019.046h.001l.018-.046m-.019.046.02-.046m-.02.046a.138.138 0 0 1-.029-.016l-.003-.003a.716.716 0 0 0-.023-.014.327.327 0 0 1-.07-.046v-.001a.067.067 0 0 1-.008-.009m.152.043c-.008-.003-.014-.008-.021-.013-.005-.004-.01-.008-.016-.01l-.112-.018.003.002-.006-.004m0 0a.07.07 0 0 1-.006-.004l-.003-.004-1.187-1.272m1.196 1.28-1.196-1.28m0 0a3.626 3.626 0 0 0-2.592-1.084c-.98 0-1.901.386-2.595 1.086a3.75 3.75 0 0 0 0 5.254l-.002.002c.002 0 .005.003.009.006m5.18-5.264L2.339 8.115a.036.036 0 0 1 .003.003v.001l-.003-.005-.001-.002m0 0a.06.06 0 0 0-.007-.008l-.002.002m.009.006a.06.06 0 0 1 .007.007m-.016-.013c-.001 0 0 0 0 0l-.033.033.033-.033zm.016.013-.038.033.04-.03a.057.057 0 0 0-.002-.003zm7.563-5.842.034.034-.034-.034zm6.298.034c1.72 1.741 1.724 4.572.013 6.319l-.001.002-.012-6.32z" fill="#515855" stroke="#515855" stroke-width=".1"/></svg>